<?xml version="1.0" encoding="UTF-8"?>
<svg width="114px" height="114px" viewBox="0 0 114 114" version="1.1" xmlns="http://www.w3.org/2000/svg" xmlns:xlink="http://www.w3.org/1999/xlink">
    <!-- Generator: Sketch 59.1 (86144) - https://sketch.com -->
    <title>Group 8</title>
    <desc>Created with Sketch.</desc>
    <g id="Design" stroke="none" stroke-width="1" fill="none" fill-rule="evenodd">
        <g id="Home_1440" transform="translate(-121.000000, -7561.000000)" fill-rule="nonzero">
            <g id="Group-8" transform="translate(122.000000, 7562.000000)">
                <circle id="Oval" stroke="#FFFFFF" opacity="0.298335" cx="56" cy="56" r="56"></circle>
                <path d="M80,50.1257239 C80,44.1174781 75.0817139,39.2294781 69.0363173,39.2294781 C68.773654,39.2294781 68.5084422,39.2392896 68.241956,39.2590707 C65.6404906,35.3732626 61.2331953,33 56.5,33 C51.766964,33 47.3596687,35.3737374 44.7582032,39.2590707 C44.4917171,39.2392896 44.2265053,39.2294781 43.963842,39.2294781 C37.9182861,39.2294781 33,44.1174781 33,50.1257239 C33,55.607 37.0942975,60.1536566 42.4028353,60.909138 L42.4028353,75.9676532 C42.4028353,78.1912121 44.2234788,80 46.4614527,80 L66.5385473,80 C68.7766805,80 70.5971647,78.1910539 70.5971647,75.9676532 L70.5971647,60.909138 C75.9058617,60.1536566 80,55.6068418 80,50.1257239 Z M66.5385473,76.8981582 L46.461612,76.8981582 C45.9541255,76.8981582 45.525008,76.4719933 45.525008,75.9674949 L45.525008,60.9105623 C47.0544759,60.6953434 48.5065307,60.1633098 49.8163428,59.3359832 C51.8254221,60.4155589 54.1103855,61.0214949 56.5,61.0214949 C58.8896145,61.0214949 61.1744186,60.4155589 63.1834979,59.3359832 C64.4936285,60.1633098 65.9458426,60.6953434 67.4751513,60.9105623 L67.4751513,75.9674949 C67.4751513,76.4719933 67.0461931,76.8981582 66.5385473,76.8981582 Z M69.0363173,57.9196532 C67.9855049,57.9196532 66.9697356,57.71567 66.0258044,57.3236869 C67.9256133,55.5933906 69.3617394,53.3443535 70.0828289,50.75967 C70.3129978,49.9342424 69.8262185,49.0795387 68.9953807,48.8507104 C68.1643836,48.6220404 67.3043963,49.1058081 67.0739089,49.9310774 C65.7620261,54.6347172 61.4138261,57.9196532 56.5,57.9196532 C51.5861739,57.9196532 47.2381332,54.6347172 45.9260911,49.9310774 C45.6959223,49.1056498 44.8360943,48.6220404 44.0046193,48.8507104 C43.1737815,49.0793805 42.6870022,49.9342424 42.9171711,50.75967 C43.6381013,53.3443535 45.0743867,55.5935488 46.9741956,57.3236869 C46.0302644,57.71567 45.0144951,57.9196532 43.963842,57.9196532 C39.6398535,57.9196532 36.1221727,54.4232963 36.1221727,50.1257239 C36.1221727,45.8279933 39.6400127,42.3313199 43.963842,42.3313199 C44.4009239,42.3313199 44.8509079,42.3702492 45.3013699,42.4468418 C45.9515769,42.5569832 46.6027397,42.2495051 46.9260911,41.6775926 C48.8701816,38.2383636 52.5387066,36.1018418 56.4998407,36.1018418 C60.4609748,36.1018418 64.1294998,38.2385219 66.0739089,41.6777508 C66.397101,42.2496633 67.0479452,42.5571414 67.6986301,42.4468418 C68.1490921,42.3702492 68.5990761,42.3313199 69.0359987,42.3313199 C73.359828,42.3313199 76.8775088,45.8279933 76.8775088,50.1257239 C76.8779866,54.4232963 73.3601465,57.9196532 69.0363173,57.9196532 Z" id="Shape" fill="#FFFFFF"></path>
            </g>
        </g>
    </g>
</svg>