<?xml version="1.0" encoding="UTF-8"?>
<svg width="114px" height="114px" viewBox="0 0 114 114" version="1.1" xmlns="http://www.w3.org/2000/svg" xmlns:xlink="http://www.w3.org/1999/xlink">
    <!-- Generator: Sketch 59.1 (86144) - https://sketch.com -->
    <title>Group</title>
    <desc>Created with Sketch.</desc>
    <g id="Design" stroke="none" stroke-width="1" fill="none" fill-rule="evenodd">
        <g id="Home_1440" transform="translate(-115.000000, -1404.000000)">
            <g id="Group" transform="translate(116.000000, 1405.000000)">
                <circle id="Oval" stroke="#FFFFFF" opacity="0.298335" fill-rule="nonzero" cx="56" cy="56" r="56"></circle>
                <path d="M71.3738925,32 C68.2568057,32 63.6502439,46.008 62.0446539,60 L66.9835448,60 L66.9835448,77 C66.9835448,78.862 68.5551011,80 69.9865186,80 L69.9885206,80 C71.6461621,80 72.9914944,78.656 72.9914944,77 C72.9954984,66.926 73.0095123,36.492 72.9894924,33.702 C72.9834865,32.714 72.2687787,32 71.3738925,32 L71.3738925,32 Z M70.9915138,34.666 L70.9895119,77 C70.9895119,77.552 70.5390658,78 69.9865186,78 C69.6722074,78 68.9855273,77.748 68.9855273,77 L68.9855273,58.004 L64.3129001,58.004 C65.9144861,46.226 69.1116522,37.308 70.9915138,34.666 L70.9915138,34.666 Z M54.0887752,32 L52.3130167,32 L53.6643549,44.004 L50.9796963,44 L50.9736904,32 L48.9717078,32 L48.9737098,44 L46.9657213,44 L46.9697253,32 L44.9677427,32 L44.9577328,44 L42.3731734,44 L43.5683569,32.004 L41.7485548,32 C41.7485548,32 40.5253435,42.076 40.0208439,47.15 C39.8446694,48.928 40.803619,50.674 42.2030048,51.794 C44.0908744,53.306 44.9717467,53.758 44.9717467,55.14 L44.9717467,77 C44.9717467,78.656 46.3050671,80 47.9687146,80 C49.634364,80 50.9796963,78.656 50.9796963,77 L50.9796963,55.15 C50.9796963,53.746 51.8465548,53.314 53.7464362,51.812 C55.1738498,50.684 56.1888549,48.904 55.9906586,47.1 C55.4401134,42.01 54.0887752,32 54.0887752,32 L54.0887752,32 Z M53.8545433,46 C54.0066939,47.316 54.3950785,48.75 52.505207,50.244 C50.6033236,51.75 48.9777138,52.676 48.9777138,55.15 L48.9777138,77 C48.9777138,77.552 48.5252657,78 47.9687146,78 C47.4101614,78 46.9737292,77.552 46.9737292,77 L46.9737292,55.14 C46.9737292,52.696 45.3341055,51.742 43.4562459,50.234 C41.6324398,48.774 42.0168205,47.284 42.1509533,46 L53.8545433,46 Z" id="Shape" fill="#FFFFFF"></path>
            </g>
        </g>
    </g>
</svg>