<?xml version="1.0" encoding="UTF-8"?>
<svg width="176px" height="176px" viewBox="0 0 176 176" version="1.1" xmlns="http://www.w3.org/2000/svg" xmlns:xlink="http://www.w3.org/1999/xlink">
    <!-- Generator: Sketch 59.1 (86144) - https://sketch.com -->
    <title>Combined Shape</title>
    <desc>Created with Sketch.</desc>
    <g id="Design" stroke="none" stroke-width="1" fill="none" fill-rule="evenodd" opacity="0.303245908">
        <g id="Home_1440" transform="translate(-577.000000, -1106.000000)" fill="#BBA285" fill-rule="nonzero">
            <path d="M581,1274 C583.209139,1274 585,1275.79086 585,1278 C585,1280.20914 583.209139,1282 581,1282 C578.790861,1282 577,1280.20914 577,1278 C577,1275.79086 578.790861,1274 581,1274 Z M605,1274 C607.209139,1274 609,1275.79086 609,1278 C609,1280.20914 607.209139,1282 605,1282 C602.790861,1282 601,1280.20914 601,1278 C601,1275.79086 602.790861,1274 605,1274 Z M629,1274 C631.209139,1274 633,1275.79086 633,1278 C633,1280.20914 631.209139,1282 629,1282 C626.790861,1282 625,1280.20914 625,1278 C625,1275.79086 626.790861,1274 629,1274 Z M653,1274 C655.209139,1274 657,1275.79086 657,1278 C657,1280.20914 655.209139,1282 653,1282 C650.790861,1282 649,1280.20914 649,1278 C649,1275.79086 650.790861,1274 653,1274 Z M677,1274 C679.209139,1274 681,1275.79086 681,1278 C681,1280.20914 679.209139,1282 677,1282 C674.790861,1282 673,1280.20914 673,1278 C673,1275.79086 674.790861,1274 677,1274 Z M701,1274 C703.209139,1274 705,1275.79086 705,1278 C705,1280.20914 703.209139,1282 701,1282 C698.790861,1282 697,1280.20914 697,1278 C697,1275.79086 698.790861,1274 701,1274 Z M725,1274 C727.209139,1274 729,1275.79086 729,1278 C729,1280.20914 727.209139,1282 725,1282 C722.790861,1282 721,1280.20914 721,1278 C721,1275.79086 722.790861,1274 725,1274 Z M749,1274 C751.209139,1274 753,1275.79086 753,1278 C753,1280.20914 751.209139,1282 749,1282 C746.790861,1282 745,1280.20914 745,1278 C745,1275.79086 746.790861,1274 749,1274 Z M581,1250 C583.209139,1250 585,1251.79086 585,1254 C585,1256.20914 583.209139,1258 581,1258 C578.790861,1258 577,1256.20914 577,1254 C577,1251.79086 578.790861,1250 581,1250 Z M605,1250 C607.209139,1250 609,1251.79086 609,1254 C609,1256.20914 607.209139,1258 605,1258 C602.790861,1258 601,1256.20914 601,1254 C601,1251.79086 602.790861,1250 605,1250 Z M629,1250 C631.209139,1250 633,1251.79086 633,1254 C633,1256.20914 631.209139,1258 629,1258 C626.790861,1258 625,1256.20914 625,1254 C625,1251.79086 626.790861,1250 629,1250 Z M653,1250 C655.209139,1250 657,1251.79086 657,1254 C657,1256.20914 655.209139,1258 653,1258 C650.790861,1258 649,1256.20914 649,1254 C649,1251.79086 650.790861,1250 653,1250 Z M677,1250 C679.209139,1250 681,1251.79086 681,1254 C681,1256.20914 679.209139,1258 677,1258 C674.790861,1258 673,1256.20914 673,1254 C673,1251.79086 674.790861,1250 677,1250 Z M701,1250 C703.209139,1250 705,1251.79086 705,1254 C705,1256.20914 703.209139,1258 701,1258 C698.790861,1258 697,1256.20914 697,1254 C697,1251.79086 698.790861,1250 701,1250 Z M725,1250 C727.209139,1250 729,1251.79086 729,1254 C729,1256.20914 727.209139,1258 725,1258 C722.790861,1258 721,1256.20914 721,1254 C721,1251.79086 722.790861,1250 725,1250 Z M749,1250 C751.209139,1250 753,1251.79086 753,1254 C753,1256.20914 751.209139,1258 749,1258 C746.790861,1258 745,1256.20914 745,1254 C745,1251.79086 746.790861,1250 749,1250 Z M581,1226 C583.209139,1226 585,1227.79086 585,1230 C585,1232.20914 583.209139,1234 581,1234 C578.790861,1234 577,1232.20914 577,1230 C577,1227.79086 578.790861,1226 581,1226 Z M605,1226 C607.209139,1226 609,1227.79086 609,1230 C609,1232.20914 607.209139,1234 605,1234 C602.790861,1234 601,1232.20914 601,1230 C601,1227.79086 602.790861,1226 605,1226 Z M629,1226 C631.209139,1226 633,1227.79086 633,1230 C633,1232.20914 631.209139,1234 629,1234 C626.790861,1234 625,1232.20914 625,1230 C625,1227.79086 626.790861,1226 629,1226 Z M653,1226 C655.209139,1226 657,1227.79086 657,1230 C657,1232.20914 655.209139,1234 653,1234 C650.790861,1234 649,1232.20914 649,1230 C649,1227.79086 650.790861,1226 653,1226 Z M677,1226 C679.209139,1226 681,1227.79086 681,1230 C681,1232.20914 679.209139,1234 677,1234 C674.790861,1234 673,1232.20914 673,1230 C673,1227.79086 674.790861,1226 677,1226 Z M701,1226 C703.209139,1226 705,1227.79086 705,1230 C705,1232.20914 703.209139,1234 701,1234 C698.790861,1234 697,1232.20914 697,1230 C697,1227.79086 698.790861,1226 701,1226 Z M725,1226 C727.209139,1226 729,1227.79086 729,1230 C729,1232.20914 727.209139,1234 725,1234 C722.790861,1234 721,1232.20914 721,1230 C721,1227.79086 722.790861,1226 725,1226 Z M749,1226 C751.209139,1226 753,1227.79086 753,1230 C753,1232.20914 751.209139,1234 749,1234 C746.790861,1234 745,1232.20914 745,1230 C745,1227.79086 746.790861,1226 749,1226 Z M581,1202 C583.209139,1202 585,1203.79086 585,1206 C585,1208.20914 583.209139,1210 581,1210 C578.790861,1210 577,1208.20914 577,1206 C577,1203.79086 578.790861,1202 581,1202 Z M605,1202 C607.209139,1202 609,1203.79086 609,1206 C609,1208.20914 607.209139,1210 605,1210 C602.790861,1210 601,1208.20914 601,1206 C601,1203.79086 602.790861,1202 605,1202 Z M629,1202 C631.209139,1202 633,1203.79086 633,1206 C633,1208.20914 631.209139,1210 629,1210 C626.790861,1210 625,1208.20914 625,1206 C625,1203.79086 626.790861,1202 629,1202 Z M653,1202 C655.209139,1202 657,1203.79086 657,1206 C657,1208.20914 655.209139,1210 653,1210 C650.790861,1210 649,1208.20914 649,1206 C649,1203.79086 650.790861,1202 653,1202 Z M677,1202 C679.209139,1202 681,1203.79086 681,1206 C681,1208.20914 679.209139,1210 677,1210 C674.790861,1210 673,1208.20914 673,1206 C673,1203.79086 674.790861,1202 677,1202 Z M701,1202 C703.209139,1202 705,1203.79086 705,1206 C705,1208.20914 703.209139,1210 701,1210 C698.790861,1210 697,1208.20914 697,1206 C697,1203.79086 698.790861,1202 701,1202 Z M725,1202 C727.209139,1202 729,1203.79086 729,1206 C729,1208.20914 727.209139,1210 725,1210 C722.790861,1210 721,1208.20914 721,1206 C721,1203.79086 722.790861,1202 725,1202 Z M749,1202 C751.209139,1202 753,1203.79086 753,1206 C753,1208.20914 751.209139,1210 749,1210 C746.790861,1210 745,1208.20914 745,1206 C745,1203.79086 746.790861,1202 749,1202 Z M725,1178 C727.209139,1178 729,1179.79086 729,1182 C729,1184.20914 727.209139,1186 725,1186 C722.790861,1186 721,1184.20914 721,1182 C721,1179.79086 722.790861,1178 725,1178 Z M749,1178 C751.209139,1178 753,1179.79086 753,1182 C753,1184.20914 751.209139,1186 749,1186 C746.790861,1186 745,1184.20914 745,1182 C745,1179.79086 746.790861,1178 749,1178 Z M581,1178 C583.209139,1178 585,1179.79086 585,1182 C585,1184.20914 583.209139,1186 581,1186 C578.790861,1186 577,1184.20914 577,1182 C577,1179.79086 578.790861,1178 581,1178 Z M653,1178 C655.209139,1178 657,1179.79086 657,1182 C657,1184.20914 655.209139,1186 653,1186 C650.790861,1186 649,1184.20914 649,1182 C649,1179.79086 650.790861,1178 653,1178 Z M677,1178 C679.209139,1178 681,1179.79086 681,1182 C681,1184.20914 679.209139,1186 677,1186 C674.790861,1186 673,1184.20914 673,1182 C673,1179.79086 674.790861,1178 677,1178 Z M605,1178 C607.209139,1178 609,1179.79086 609,1182 C609,1184.20914 607.209139,1186 605,1186 C602.790861,1186 601,1184.20914 601,1182 C601,1179.79086 602.790861,1178 605,1178 Z M629,1178 C631.209139,1178 633,1179.79086 633,1182 C633,1184.20914 631.209139,1186 629,1186 C626.790861,1186 625,1184.20914 625,1182 C625,1179.79086 626.790861,1178 629,1178 Z M701,1178 C703.209139,1178 705,1179.79086 705,1182 C705,1184.20914 703.209139,1186 701,1186 C698.790861,1186 697,1184.20914 697,1182 C697,1179.79086 698.790861,1178 701,1178 Z M629,1154 C631.209139,1154 633,1155.79086 633,1158 C633,1160.20914 631.209139,1162 629,1162 C626.790861,1162 625,1160.20914 625,1158 C625,1155.79086 626.790861,1154 629,1154 Z M605,1154 C607.209139,1154 609,1155.79086 609,1158 C609,1160.20914 607.209139,1162 605,1162 C602.790861,1162 601,1160.20914 601,1158 C601,1155.79086 602.790861,1154 605,1154 Z M701,1154 C703.209139,1154 705,1155.79086 705,1158 C705,1160.20914 703.209139,1162 701,1162 C698.790861,1162 697,1160.20914 697,1158 C697,1155.79086 698.790861,1154 701,1154 Z M725,1154 C727.209139,1154 729,1155.79086 729,1158 C729,1160.20914 727.209139,1162 725,1162 C722.790861,1162 721,1160.20914 721,1158 C721,1155.79086 722.790861,1154 725,1154 Z M653,1154 C655.209139,1154 657,1155.79086 657,1158 C657,1160.20914 655.209139,1162 653,1162 C650.790861,1162 649,1160.20914 649,1158 C649,1155.79086 650.790861,1154 653,1154 Z M677,1154 C679.209139,1154 681,1155.79086 681,1158 C681,1160.20914 679.209139,1162 677,1162 C674.790861,1162 673,1160.20914 673,1158 C673,1155.79086 674.790861,1154 677,1154 Z M749,1154 C751.209139,1154 753,1155.79086 753,1158 C753,1160.20914 751.209139,1162 749,1162 C746.790861,1162 745,1160.20914 745,1158 C745,1155.79086 746.790861,1154 749,1154 Z M581,1154 C583.209139,1154 585,1155.79086 585,1158 C585,1160.20914 583.209139,1162 581,1162 C578.790861,1162 577,1160.20914 577,1158 C577,1155.79086 578.790861,1154 581,1154 Z M677,1130 C679.209139,1130 681,1131.79086 681,1134 C681,1136.20914 679.209139,1138 677,1138 C674.790861,1138 673,1136.20914 673,1134 C673,1131.79086 674.790861,1130 677,1130 Z M653,1130 C655.209139,1130 657,1131.79086 657,1134 C657,1136.20914 655.209139,1138 653,1138 C650.790861,1138 649,1136.20914 649,1134 C649,1131.79086 650.790861,1130 653,1130 Z M701,1130 C703.209139,1130 705,1131.79086 705,1134 C705,1136.20914 703.209139,1138 701,1138 C698.790861,1138 697,1136.20914 697,1134 C697,1131.79086 698.790861,1130 701,1130 Z M725,1130 C727.209139,1130 729,1131.79086 729,1134 C729,1136.20914 727.209139,1138 725,1138 C722.790861,1138 721,1136.20914 721,1134 C721,1131.79086 722.790861,1130 725,1130 Z M749,1130 C751.209139,1130 753,1131.79086 753,1134 C753,1136.20914 751.209139,1138 749,1138 C746.790861,1138 745,1136.20914 745,1134 C745,1131.79086 746.790861,1130 749,1130 Z M605,1130 C607.209139,1130 609,1131.79086 609,1134 C609,1136.20914 607.209139,1138 605,1138 C602.790861,1138 601,1136.20914 601,1134 C601,1131.79086 602.790861,1130 605,1130 Z M629,1130 C631.209139,1130 633,1131.79086 633,1134 C633,1136.20914 631.209139,1138 629,1138 C626.790861,1138 625,1136.20914 625,1134 C625,1131.79086 626.790861,1130 629,1130 Z M581,1130 C583.209139,1130 585,1131.79086 585,1134 C585,1136.20914 583.209139,1138 581,1138 C578.790861,1138 577,1136.20914 577,1134 C577,1131.79086 578.790861,1130 581,1130 Z M581,1106 C583.209139,1106 585,1107.79086 585,1110 C585,1112.20914 583.209139,1114 581,1114 C578.790861,1114 577,1112.20914 577,1110 C577,1107.79086 578.790861,1106 581,1106 Z M605,1106 C607.209139,1106 609,1107.79086 609,1110 C609,1112.20914 607.209139,1114 605,1114 C602.790861,1114 601,1112.20914 601,1110 C601,1107.79086 602.790861,1106 605,1106 Z M629,1106 C631.209139,1106 633,1107.79086 633,1110 C633,1112.20914 631.209139,1114 629,1114 C626.790861,1114 625,1112.20914 625,1110 C625,1107.79086 626.790861,1106 629,1106 Z M653,1106 C655.209139,1106 657,1107.79086 657,1110 C657,1112.20914 655.209139,1114 653,1114 C650.790861,1114 649,1112.20914 649,1110 C649,1107.79086 650.790861,1106 653,1106 Z M677,1106 C679.209139,1106 681,1107.79086 681,1110 C681,1112.20914 679.209139,1114 677,1114 C674.790861,1114 673,1112.20914 673,1110 C673,1107.79086 674.790861,1106 677,1106 Z M701,1106 C703.209139,1106 705,1107.79086 705,1110 C705,1112.20914 703.209139,1114 701,1114 C698.790861,1114 697,1112.20914 697,1110 C697,1107.79086 698.790861,1106 701,1106 Z M725,1106 C727.209139,1106 729,1107.79086 729,1110 C729,1112.20914 727.209139,1114 725,1114 C722.790861,1114 721,1112.20914 721,1110 C721,1107.79086 722.790861,1106 725,1106 Z M749,1106 C751.209139,1106 753,1107.79086 753,1110 C753,1112.20914 751.209139,1114 749,1114 C746.790861,1114 745,1112.20914 745,1110 C745,1107.79086 746.790861,1106 749,1106 Z" id="Combined-Shape"></path>
        </g>
    </g>
</svg>