<?xml version="1.0" encoding="UTF-8"?>
<svg width="176px" height="176px" viewBox="0 0 176 176" version="1.1" xmlns="http://www.w3.org/2000/svg" xmlns:xlink="http://www.w3.org/1999/xlink">
    <!-- Generator: Sketch 59.1 (86144) - https://sketch.com -->
    <title>Combined Shape</title>
    <desc>Created with Sketch.</desc>
    <g id="Design" stroke="none" stroke-width="1" fill="none" fill-rule="evenodd" opacity="0.303245908">
        <g id="Home_1440" transform="translate(-1177.000000, -4128.000000)" fill="#FFFFFF" fill-rule="nonzero">
            <path d="M1181,4296 C1183.20914,4296 1185,4297.79086 1185,4300 C1185,4302.20914 1183.20914,4304 1181,4304 C1178.79086,4304 1177,4302.20914 1177,4300 C1177,4297.79086 1178.79086,4296 1181,4296 Z M1205,4296 C1207.20914,4296 1209,4297.79086 1209,4300 C1209,4302.20914 1207.20914,4304 1205,4304 C1202.79086,4304 1201,4302.20914 1201,4300 C1201,4297.79086 1202.79086,4296 1205,4296 Z M1229,4296 C1231.20914,4296 1233,4297.79086 1233,4300 C1233,4302.20914 1231.20914,4304 1229,4304 C1226.79086,4304 1225,4302.20914 1225,4300 C1225,4297.79086 1226.79086,4296 1229,4296 Z M1253,4296 C1255.20914,4296 1257,4297.79086 1257,4300 C1257,4302.20914 1255.20914,4304 1253,4304 C1250.79086,4304 1249,4302.20914 1249,4300 C1249,4297.79086 1250.79086,4296 1253,4296 Z M1277,4296 C1279.20914,4296 1281,4297.79086 1281,4300 C1281,4302.20914 1279.20914,4304 1277,4304 C1274.79086,4304 1273,4302.20914 1273,4300 C1273,4297.79086 1274.79086,4296 1277,4296 Z M1301,4296 C1303.20914,4296 1305,4297.79086 1305,4300 C1305,4302.20914 1303.20914,4304 1301,4304 C1298.79086,4304 1297,4302.20914 1297,4300 C1297,4297.79086 1298.79086,4296 1301,4296 Z M1325,4296 C1327.20914,4296 1329,4297.79086 1329,4300 C1329,4302.20914 1327.20914,4304 1325,4304 C1322.79086,4304 1321,4302.20914 1321,4300 C1321,4297.79086 1322.79086,4296 1325,4296 Z M1349,4296 C1351.20914,4296 1353,4297.79086 1353,4300 C1353,4302.20914 1351.20914,4304 1349,4304 C1346.79086,4304 1345,4302.20914 1345,4300 C1345,4297.79086 1346.79086,4296 1349,4296 Z M1181,4272 C1183.20914,4272 1185,4273.79086 1185,4276 C1185,4278.20914 1183.20914,4280 1181,4280 C1178.79086,4280 1177,4278.20914 1177,4276 C1177,4273.79086 1178.79086,4272 1181,4272 Z M1205,4272 C1207.20914,4272 1209,4273.79086 1209,4276 C1209,4278.20914 1207.20914,4280 1205,4280 C1202.79086,4280 1201,4278.20914 1201,4276 C1201,4273.79086 1202.79086,4272 1205,4272 Z M1229,4272 C1231.20914,4272 1233,4273.79086 1233,4276 C1233,4278.20914 1231.20914,4280 1229,4280 C1226.79086,4280 1225,4278.20914 1225,4276 C1225,4273.79086 1226.79086,4272 1229,4272 Z M1253,4272 C1255.20914,4272 1257,4273.79086 1257,4276 C1257,4278.20914 1255.20914,4280 1253,4280 C1250.79086,4280 1249,4278.20914 1249,4276 C1249,4273.79086 1250.79086,4272 1253,4272 Z M1277,4272 C1279.20914,4272 1281,4273.79086 1281,4276 C1281,4278.20914 1279.20914,4280 1277,4280 C1274.79086,4280 1273,4278.20914 1273,4276 C1273,4273.79086 1274.79086,4272 1277,4272 Z M1301,4272 C1303.20914,4272 1305,4273.79086 1305,4276 C1305,4278.20914 1303.20914,4280 1301,4280 C1298.79086,4280 1297,4278.20914 1297,4276 C1297,4273.79086 1298.79086,4272 1301,4272 Z M1325,4272 C1327.20914,4272 1329,4273.79086 1329,4276 C1329,4278.20914 1327.20914,4280 1325,4280 C1322.79086,4280 1321,4278.20914 1321,4276 C1321,4273.79086 1322.79086,4272 1325,4272 Z M1349,4272 C1351.20914,4272 1353,4273.79086 1353,4276 C1353,4278.20914 1351.20914,4280 1349,4280 C1346.79086,4280 1345,4278.20914 1345,4276 C1345,4273.79086 1346.79086,4272 1349,4272 Z M1181,4248 C1183.20914,4248 1185,4249.79086 1185,4252 C1185,4254.20914 1183.20914,4256 1181,4256 C1178.79086,4256 1177,4254.20914 1177,4252 C1177,4249.79086 1178.79086,4248 1181,4248 Z M1205,4248 C1207.20914,4248 1209,4249.79086 1209,4252 C1209,4254.20914 1207.20914,4256 1205,4256 C1202.79086,4256 1201,4254.20914 1201,4252 C1201,4249.79086 1202.79086,4248 1205,4248 Z M1229,4248 C1231.20914,4248 1233,4249.79086 1233,4252 C1233,4254.20914 1231.20914,4256 1229,4256 C1226.79086,4256 1225,4254.20914 1225,4252 C1225,4249.79086 1226.79086,4248 1229,4248 Z M1253,4248 C1255.20914,4248 1257,4249.79086 1257,4252 C1257,4254.20914 1255.20914,4256 1253,4256 C1250.79086,4256 1249,4254.20914 1249,4252 C1249,4249.79086 1250.79086,4248 1253,4248 Z M1277,4248 C1279.20914,4248 1281,4249.79086 1281,4252 C1281,4254.20914 1279.20914,4256 1277,4256 C1274.79086,4256 1273,4254.20914 1273,4252 C1273,4249.79086 1274.79086,4248 1277,4248 Z M1301,4248 C1303.20914,4248 1305,4249.79086 1305,4252 C1305,4254.20914 1303.20914,4256 1301,4256 C1298.79086,4256 1297,4254.20914 1297,4252 C1297,4249.79086 1298.79086,4248 1301,4248 Z M1325,4248 C1327.20914,4248 1329,4249.79086 1329,4252 C1329,4254.20914 1327.20914,4256 1325,4256 C1322.79086,4256 1321,4254.20914 1321,4252 C1321,4249.79086 1322.79086,4248 1325,4248 Z M1349,4248 C1351.20914,4248 1353,4249.79086 1353,4252 C1353,4254.20914 1351.20914,4256 1349,4256 C1346.79086,4256 1345,4254.20914 1345,4252 C1345,4249.79086 1346.79086,4248 1349,4248 Z M1181,4224 C1183.20914,4224 1185,4225.79086 1185,4228 C1185,4230.20914 1183.20914,4232 1181,4232 C1178.79086,4232 1177,4230.20914 1177,4228 C1177,4225.79086 1178.79086,4224 1181,4224 Z M1205,4224 C1207.20914,4224 1209,4225.79086 1209,4228 C1209,4230.20914 1207.20914,4232 1205,4232 C1202.79086,4232 1201,4230.20914 1201,4228 C1201,4225.79086 1202.79086,4224 1205,4224 Z M1229,4224 C1231.20914,4224 1233,4225.79086 1233,4228 C1233,4230.20914 1231.20914,4232 1229,4232 C1226.79086,4232 1225,4230.20914 1225,4228 C1225,4225.79086 1226.79086,4224 1229,4224 Z M1253,4224 C1255.20914,4224 1257,4225.79086 1257,4228 C1257,4230.20914 1255.20914,4232 1253,4232 C1250.79086,4232 1249,4230.20914 1249,4228 C1249,4225.79086 1250.79086,4224 1253,4224 Z M1277,4224 C1279.20914,4224 1281,4225.79086 1281,4228 C1281,4230.20914 1279.20914,4232 1277,4232 C1274.79086,4232 1273,4230.20914 1273,4228 C1273,4225.79086 1274.79086,4224 1277,4224 Z M1301,4224 C1303.20914,4224 1305,4225.79086 1305,4228 C1305,4230.20914 1303.20914,4232 1301,4232 C1298.79086,4232 1297,4230.20914 1297,4228 C1297,4225.79086 1298.79086,4224 1301,4224 Z M1325,4224 C1327.20914,4224 1329,4225.79086 1329,4228 C1329,4230.20914 1327.20914,4232 1325,4232 C1322.79086,4232 1321,4230.20914 1321,4228 C1321,4225.79086 1322.79086,4224 1325,4224 Z M1349,4224 C1351.20914,4224 1353,4225.79086 1353,4228 C1353,4230.20914 1351.20914,4232 1349,4232 C1346.79086,4232 1345,4230.20914 1345,4228 C1345,4225.79086 1346.79086,4224 1349,4224 Z M1325,4200 C1327.20914,4200 1329,4201.79086 1329,4204 C1329,4206.20914 1327.20914,4208 1325,4208 C1322.79086,4208 1321,4206.20914 1321,4204 C1321,4201.79086 1322.79086,4200 1325,4200 Z M1349,4200 C1351.20914,4200 1353,4201.79086 1353,4204 C1353,4206.20914 1351.20914,4208 1349,4208 C1346.79086,4208 1345,4206.20914 1345,4204 C1345,4201.79086 1346.79086,4200 1349,4200 Z M1181,4200 C1183.20914,4200 1185,4201.79086 1185,4204 C1185,4206.20914 1183.20914,4208 1181,4208 C1178.79086,4208 1177,4206.20914 1177,4204 C1177,4201.79086 1178.79086,4200 1181,4200 Z M1253,4200 C1255.20914,4200 1257,4201.79086 1257,4204 C1257,4206.20914 1255.20914,4208 1253,4208 C1250.79086,4208 1249,4206.20914 1249,4204 C1249,4201.79086 1250.79086,4200 1253,4200 Z M1277,4200 C1279.20914,4200 1281,4201.79086 1281,4204 C1281,4206.20914 1279.20914,4208 1277,4208 C1274.79086,4208 1273,4206.20914 1273,4204 C1273,4201.79086 1274.79086,4200 1277,4200 Z M1205,4200 C1207.20914,4200 1209,4201.79086 1209,4204 C1209,4206.20914 1207.20914,4208 1205,4208 C1202.79086,4208 1201,4206.20914 1201,4204 C1201,4201.79086 1202.79086,4200 1205,4200 Z M1229,4200 C1231.20914,4200 1233,4201.79086 1233,4204 C1233,4206.20914 1231.20914,4208 1229,4208 C1226.79086,4208 1225,4206.20914 1225,4204 C1225,4201.79086 1226.79086,4200 1229,4200 Z M1301,4200 C1303.20914,4200 1305,4201.79086 1305,4204 C1305,4206.20914 1303.20914,4208 1301,4208 C1298.79086,4208 1297,4206.20914 1297,4204 C1297,4201.79086 1298.79086,4200 1301,4200 Z M1229,4176 C1231.20914,4176 1233,4177.79086 1233,4180 C1233,4182.20914 1231.20914,4184 1229,4184 C1226.79086,4184 1225,4182.20914 1225,4180 C1225,4177.79086 1226.79086,4176 1229,4176 Z M1205,4176 C1207.20914,4176 1209,4177.79086 1209,4180 C1209,4182.20914 1207.20914,4184 1205,4184 C1202.79086,4184 1201,4182.20914 1201,4180 C1201,4177.79086 1202.79086,4176 1205,4176 Z M1301,4176 C1303.20914,4176 1305,4177.79086 1305,4180 C1305,4182.20914 1303.20914,4184 1301,4184 C1298.79086,4184 1297,4182.20914 1297,4180 C1297,4177.79086 1298.79086,4176 1301,4176 Z M1325,4176 C1327.20914,4176 1329,4177.79086 1329,4180 C1329,4182.20914 1327.20914,4184 1325,4184 C1322.79086,4184 1321,4182.20914 1321,4180 C1321,4177.79086 1322.79086,4176 1325,4176 Z M1253,4176 C1255.20914,4176 1257,4177.79086 1257,4180 C1257,4182.20914 1255.20914,4184 1253,4184 C1250.79086,4184 1249,4182.20914 1249,4180 C1249,4177.79086 1250.79086,4176 1253,4176 Z M1277,4176 C1279.20914,4176 1281,4177.79086 1281,4180 C1281,4182.20914 1279.20914,4184 1277,4184 C1274.79086,4184 1273,4182.20914 1273,4180 C1273,4177.79086 1274.79086,4176 1277,4176 Z M1349,4176 C1351.20914,4176 1353,4177.79086 1353,4180 C1353,4182.20914 1351.20914,4184 1349,4184 C1346.79086,4184 1345,4182.20914 1345,4180 C1345,4177.79086 1346.79086,4176 1349,4176 Z M1181,4176 C1183.20914,4176 1185,4177.79086 1185,4180 C1185,4182.20914 1183.20914,4184 1181,4184 C1178.79086,4184 1177,4182.20914 1177,4180 C1177,4177.79086 1178.79086,4176 1181,4176 Z M1277,4152 C1279.20914,4152 1281,4153.79086 1281,4156 C1281,4158.20914 1279.20914,4160 1277,4160 C1274.79086,4160 1273,4158.20914 1273,4156 C1273,4153.79086 1274.79086,4152 1277,4152 Z M1253,4152 C1255.20914,4152 1257,4153.79086 1257,4156 C1257,4158.20914 1255.20914,4160 1253,4160 C1250.79086,4160 1249,4158.20914 1249,4156 C1249,4153.79086 1250.79086,4152 1253,4152 Z M1301,4152 C1303.20914,4152 1305,4153.79086 1305,4156 C1305,4158.20914 1303.20914,4160 1301,4160 C1298.79086,4160 1297,4158.20914 1297,4156 C1297,4153.79086 1298.79086,4152 1301,4152 Z M1325,4152 C1327.20914,4152 1329,4153.79086 1329,4156 C1329,4158.20914 1327.20914,4160 1325,4160 C1322.79086,4160 1321,4158.20914 1321,4156 C1321,4153.79086 1322.79086,4152 1325,4152 Z M1349,4152 C1351.20914,4152 1353,4153.79086 1353,4156 C1353,4158.20914 1351.20914,4160 1349,4160 C1346.79086,4160 1345,4158.20914 1345,4156 C1345,4153.79086 1346.79086,4152 1349,4152 Z M1205,4152 C1207.20914,4152 1209,4153.79086 1209,4156 C1209,4158.20914 1207.20914,4160 1205,4160 C1202.79086,4160 1201,4158.20914 1201,4156 C1201,4153.79086 1202.79086,4152 1205,4152 Z M1229,4152 C1231.20914,4152 1233,4153.79086 1233,4156 C1233,4158.20914 1231.20914,4160 1229,4160 C1226.79086,4160 1225,4158.20914 1225,4156 C1225,4153.79086 1226.79086,4152 1229,4152 Z M1181,4152 C1183.20914,4152 1185,4153.79086 1185,4156 C1185,4158.20914 1183.20914,4160 1181,4160 C1178.79086,4160 1177,4158.20914 1177,4156 C1177,4153.79086 1178.79086,4152 1181,4152 Z M1181,4128 C1183.20914,4128 1185,4129.79086 1185,4132 C1185,4134.20914 1183.20914,4136 1181,4136 C1178.79086,4136 1177,4134.20914 1177,4132 C1177,4129.79086 1178.79086,4128 1181,4128 Z M1205,4128 C1207.20914,4128 1209,4129.79086 1209,4132 C1209,4134.20914 1207.20914,4136 1205,4136 C1202.79086,4136 1201,4134.20914 1201,4132 C1201,4129.79086 1202.79086,4128 1205,4128 Z M1229,4128 C1231.20914,4128 1233,4129.79086 1233,4132 C1233,4134.20914 1231.20914,4136 1229,4136 C1226.79086,4136 1225,4134.20914 1225,4132 C1225,4129.79086 1226.79086,4128 1229,4128 Z M1253,4128 C1255.20914,4128 1257,4129.79086 1257,4132 C1257,4134.20914 1255.20914,4136 1253,4136 C1250.79086,4136 1249,4134.20914 1249,4132 C1249,4129.79086 1250.79086,4128 1253,4128 Z M1277,4128 C1279.20914,4128 1281,4129.79086 1281,4132 C1281,4134.20914 1279.20914,4136 1277,4136 C1274.79086,4136 1273,4134.20914 1273,4132 C1273,4129.79086 1274.79086,4128 1277,4128 Z M1301,4128 C1303.20914,4128 1305,4129.79086 1305,4132 C1305,4134.20914 1303.20914,4136 1301,4136 C1298.79086,4136 1297,4134.20914 1297,4132 C1297,4129.79086 1298.79086,4128 1301,4128 Z M1325,4128 C1327.20914,4128 1329,4129.79086 1329,4132 C1329,4134.20914 1327.20914,4136 1325,4136 C1322.79086,4136 1321,4134.20914 1321,4132 C1321,4129.79086 1322.79086,4128 1325,4128 Z M1349,4128 C1351.20914,4128 1353,4129.79086 1353,4132 C1353,4134.20914 1351.20914,4136 1349,4136 C1346.79086,4136 1345,4134.20914 1345,4132 C1345,4129.79086 1346.79086,4128 1349,4128 Z" id="Combined-Shape"></path>
        </g>
    </g>
</svg>